<svg width="179" height="184" xmlns="http://www.w3.org/2000/svg" xmlns:xlink="http://www.w3.org/1999/xlink" xml:space="preserve" overflow="hidden">
  <g transform="translate(-421 -1003)">
    <g>
      <path d="M0 0 0.000360892 47.4267" stroke="#ED7D31" stroke-width="9.16667" stroke-linecap="butt" stroke-linejoin="miter" stroke-miterlimit="8" stroke-opacity="1" fill="none" fill-rule="evenodd" transform="matrix(1 0 0 -1 507.5 1056.93)" />
      <path d="M424.5 1097.5 469.357 1097.5" stroke="#ED7D31" stroke-width="9.16667" stroke-linecap="butt" stroke-linejoin="miter" stroke-miterlimit="8" stroke-opacity="1" fill="none" fill-rule="evenodd" />
      <path d="M0 0 26.4 25.1766" stroke="#4472C4" stroke-width="9.16667" stroke-linecap="butt" stroke-linejoin="miter" stroke-miterlimit="8" stroke-opacity="1" fill="none" fill-rule="evenodd" transform="matrix(1 0 0 -1 537.5 1065.68)" />
      <path d="M0 0 0.000360892 45.7449" stroke="#ED7D31" stroke-width="9.16667" stroke-linecap="butt" stroke-linejoin="miter" stroke-miterlimit="8" stroke-opacity="1" fill="none" fill-rule="evenodd" transform="matrix(1 0 0 -1 507.5 1182.24)" />
      <path d="M544.5 1097.5 590.7 1097.5" stroke="#ED7D31" stroke-width="9.16667" stroke-linecap="butt" stroke-linejoin="miter" stroke-miterlimit="8" stroke-opacity="1" fill="none" fill-rule="evenodd" />
      <path d="M0 0 26.4751 26.4" stroke="#4472C4" stroke-width="9.16667" stroke-linecap="butt" stroke-linejoin="miter" stroke-miterlimit="8" stroke-opacity="1" fill="none" fill-rule="evenodd" transform="matrix(1 0 0 -1 453.5 1149.9)" />
      <path d="M450.5 1040.5 476.9 1066.9" stroke="#4472C4" stroke-width="9.16667" stroke-linecap="butt" stroke-linejoin="miter" stroke-miterlimit="8" stroke-opacity="1" fill="none" fill-rule="evenodd" />
      <path d="M537.5 1123.5 564.746 1149.58" stroke="#4472C4" stroke-width="9.16667" stroke-linecap="butt" stroke-linejoin="miter" stroke-miterlimit="8" stroke-opacity="1" fill="none" fill-rule="evenodd" />
      <path d="M487 1096.5C487 1084.07 496.178 1074 507.5 1074 518.822 1074 528 1084.07 528 1096.5 528 1108.93 518.822 1119 507.5 1119 496.178 1119 487 1108.93 487 1096.5Z" fill="#ED7D31" fill-rule="evenodd" fill-opacity="1" />
    </g>
  </g>
</svg>